<?xml version="1.0" encoding="utf-8"?>
<!-- Designed by Vexels.com - 2016 All Rights Reserved - https://vexels.com/terms-and-conditions/  -->

<svg version="1.0" id="Capa_1" xmlns="http://www.w3.org/2000/svg" xmlns:xlink="http://www.w3.org/1999/xlink" x="0px" y="0px"
	 width="1200px" height="1200px" viewBox="0 0 1200 1200" enable-background="new 0 0 1200 1200" xml:space="preserve">
<g>
	<path opacity="0.1" fill="#FFFFFF" d="M940.001,762.673c-124.33,54.023-268.939-2.961-322.949-127.291
		c-54.023-124.33,2.988-268.939,127.318-322.961c124.33-54.01,268.9,3.013,322.922,127.344
		C1121.302,564.095,1064.33,708.664,940.001,762.673z"/>
	<path fill="#6F6353" d="M1084.4,432.327c-56.698-130.489-208.457-190.358-338.984-133.648
		c-130.49,56.711-190.319,208.496-133.621,338.986c56.697,130.489,208.469,190.318,338.958,133.621
		C1081.281,714.575,1141.098,562.816,1084.4,432.327z M639.458,625.647c-50.069-115.236,2.741-249.235,117.962-299.304
		c115.262-50.081,249.247,2.767,299.317,118.002c50.069,115.209-2.741,249.222-118.002,299.303
		C823.513,793.731,689.5,740.856,639.458,625.647z"/>
	<polygon fill="#6F6353" points="520.491,701.579 502.757,660.762 615.995,611.566 633.741,652.384 	"/>
	<path fill="#F8971D" d="M158.37,885.53c-19.273,8.377-41.757-0.457-50.135-19.769l-6.812-15.659
		c-8.377-19.312,0.484-41.782,19.757-50.16l367.196-159.537c19.287-8.377,41.745,0.47,50.148,19.783l6.799,15.659
		c8.39,19.312-0.484,41.77-19.769,50.133L158.37,885.53z"/>
	<path fill="#FFFFFF" d="M894.211,706.054c-0.091-0.208-0.183-0.43-0.261-0.639c-2.61-6.968,0.926-14.693,7.881-17.303
		c48.347-18.112,80.643-46.038,95.949-82.965c25.889-62.4-4.933-131.272-5.142-132.055c-2.831-6.656-0.091-14.746,6.668-17.812
		c6.733-3.067,14.733-0.131,17.8,6.629c1.383,3.223,35.884,79.949,5.597,153.325c-18.229,44.21-55.732,77.184-111.451,98.062
		C904.507,715.802,897.056,712.592,894.211,706.054z"/>
</g>
</svg>
